<?xml version="1.0" encoding="UTF-8"?>
<svg xmlns="http://www.w3.org/2000/svg" xmlns:xlink="http://www.w3.org/1999/xlink" viewBox="0 0 16 16" width="16px" height="16px">
<g id="surface191681598">
<path style=" stroke:none;fill-rule:nonzero;fill:rgb(100%,100%,100%);fill-opacity:1;" d="M 0.601562 14.199219 L 0.601562 1.800781 L 4.71875 1.800781 L 5.917969 3 L 14.199219 3 L 14.199219 14.199219 Z M 0.601562 14.199219 "/>
<path style=" stroke:none;fill-rule:nonzero;fill:rgb(20.392157%,59.607846%,85.882354%);fill-opacity:1;" d="M 4.632812 2 L 5.71875 3.082031 L 5.835938 3.199219 L 14 3.199219 L 14 14 L 0.800781 14 L 0.800781 2 L 4.632812 2 M 4.800781 1.601562 L 0.398438 1.601562 L 0.398438 14.398438 L 14.398438 14.398438 L 14.398438 2.800781 L 6 2.800781 Z M 4.800781 1.601562 "/>
<path style=" stroke:none;fill-rule:nonzero;fill:rgb(100%,100%,100%);fill-opacity:1;" d="M 0.640625 14.199219 L 2.167969 5.800781 L 6.460938 5.800781 L 7.660156 5 L 15.765625 5 L 14.230469 14.199219 Z M 0.640625 14.199219 "/>
<path style=" stroke:none;fill-rule:nonzero;fill:rgb(20.392157%,59.607846%,85.882354%);fill-opacity:1;" d="M 15.527344 5.199219 L 14.0625 14 L 0.878906 14 L 2.332031 6 L 6.519531 6 L 6.621094 5.933594 L 7.722656 5.199219 L 15.527344 5.199219 M 16 4.800781 L 7.601562 4.800781 L 6.398438 5.601562 L 2 5.601562 L 0.398438 14.398438 L 14.398438 14.398438 Z M 16 4.800781 "/>
</g>
</svg>
