<?xml version="1.0" encoding="UTF-8"?>
<svg xmlns="http://www.w3.org/2000/svg" xmlns:xlink="http://www.w3.org/1999/xlink" viewBox="0 0 48 48" width="48px" height="48px">
<g id="surface181752946">
<path style=" stroke:none;fill-rule:nonzero;fill:rgb(0.784314%,46.666667%,74.117649%);fill-opacity:1;" d="M 24.046875 5 C 22.492188 5.003906 21.414062 5.140625 20.109375 5.367188 C 16.261719 6.035156 15.5625 7.445312 15.5625 10.035156 L 15.5625 14 L 24.5625 14 L 24.5625 16 L 10.871094 16 C 8.234375 16 5.925781 17.242188 5.195312 20.21875 C 4.371094 23.636719 4.332031 25.777344 5.195312 29.34375 C 5.851562 32.003906 7.292969 34 9.929688 34 L 13.5625 34 L 13.5625 28.894531 C 13.5625 25.929688 16.25 23 19.328125 23 L 26.5625 23 C 29.085938 23 31.5625 21.136719 31.5625 18.621094 L 31.5625 10.035156 C 31.5625 7.597656 29.804688 5.773438 27.34375 5.363281 C 27.40625 5.359375 25.589844 4.992188 24.046875 5 Z M 19.0625 9 C 19.882812 9 20.5625 9.675781 20.5625 10.503906 C 20.5625 11.335938 19.882812 12 19.0625 12 C 18.226562 12 17.5625 11.335938 17.5625 10.503906 C 17.5625 9.679688 18.226562 9 19.0625 9 Z M 19.0625 9 "/>
<path style=" stroke:none;fill-rule:nonzero;fill:rgb(20.392157%,59.607846%,85.882354%);fill-opacity:1;" d="M 23.078125 43 C 24.632812 42.996094 25.710938 42.859375 27.015625 42.632812 C 30.863281 41.964844 31.5625 40.554688 31.5625 37.964844 L 31.5625 34 L 22.5625 34 L 22.5625 32 L 36.257812 32 C 38.890625 32 41.199219 30.757812 41.929688 27.78125 C 42.757812 24.363281 42.792969 22.222656 41.929688 18.65625 C 41.273438 15.996094 39.832031 14 37.195312 14 L 33.5625 14 L 33.5625 19.105469 C 33.5625 22.070312 30.875 25 27.796875 25 L 20.5625 25 C 18.039062 25 15.5625 26.863281 15.5625 29.378906 L 15.5625 37.964844 C 15.5625 40.402344 17.320312 42.226562 19.78125 42.636719 C 19.71875 42.640625 21.535156 43.007812 23.078125 43 Z M 28.0625 39 C 27.242188 39 26.5625 38.324219 26.5625 37.496094 C 26.5625 36.664062 27.242188 36 28.0625 36 C 28.898438 36 29.5625 36.664062 29.5625 37.496094 C 29.5625 38.320312 28.898438 39 28.0625 39 Z M 28.0625 39 "/>
</g>
</svg>
