<svg fill="#000000" xmlns="http://www.w3.org/2000/svg"  viewBox="0 0 50 50" width="100px" height="100px"><path d="M 1.28125 1 L 13.1875 11 L 27.34375 11 C 27.265625 10.9375 27.207031 10.871094 27.125 10.8125 L 13.375 1 Z M 19.375 1 L 33.125 10.8125 C 33.207031 10.871094 33.269531 10.9375 33.34375 11 L 48.15625 11 L 34.40625 1.1875 C 34.238281 1.066406 34.050781 1 33.84375 1 Z M 0.125 2.5 C 0.289063 2.957031 1 5.117188 1 8.6875 C 1 10.441406 0.816406 11.617188 0.625 12.34375 L 12.5 22.28125 C 12.738281 21.339844 13 19.910156 13 18 C 13 14.960938 12.367188 13.125 12.15625 12.59375 Z M 14.21875 13 C 14.511719 14.085938 14.84375 15.769531 14.84375 18 C 14.84375 20.230469 14.511719 21.914063 14.21875 23 L 26 23 L 26 25 L 14.21875 25 C 14.511719 26.085938 14.84375 27.769531 14.84375 30 C 14.84375 32.113281 14.332031 34.800781 14.03125 36 L 29 36 L 29 31 L 35 31 L 35 36 L 48.90625 36 C 49.21875 35.164063 49.84375 33.121094 49.84375 30 C 49.84375 27.757813 49.511719 26.082031 49.21875 25 L 38 25 L 38 23 L 49.21875 23 C 49.511719 21.917969 49.84375 20.242188 49.84375 18 C 49.84375 15.753906 49.515625 14.085938 49.21875 13 L 34.65625 13 C 34.757813 13.355469 34.84375 13.714844 34.84375 14.09375 L 34.84375 20 L 33 20 L 33 19 C 33.007813 18.691406 32.871094 18.398438 32.632813 18.203125 C 32.398438 18.007813 32.082031 17.933594 31.78125 18 C 31.316406 18.105469 30.988281 18.523438 31 19 L 31 20 L 28.84375 20 L 28.84375 14.09375 C 28.84375 13.714844 28.757813 13.355469 28.65625 13 Z M 18.875 14 C 19.261719 14.007813 19.597656 14.242188 19.75 14.625 C 19.796875 14.746094 20.21875 15.867188 20.21875 18 C 20.21875 20.132813 19.796875 21.253906 19.75 21.375 C 19.59375 21.765625 19.242188 22 18.84375 22 C 18.71875 22 18.589844 21.988281 18.46875 21.9375 C 17.957031 21.734375 17.703125 21.136719 17.90625 20.625 C 17.90625 20.625 18.21875 19.738281 18.21875 18 C 18.21875 16.261719 17.910156 15.382813 17.90625 15.375 C 17.710938 14.863281 17.957031 14.261719 18.46875 14.0625 C 18.597656 14.011719 18.746094 13.996094 18.875 14 Z M 32 14 C 31.449219 14 31 14.449219 31 15 C 31 15.550781 31.449219 16 32 16 C 32.550781 16 33 15.550781 33 15 C 33 14.449219 32.550781 14 32 14 Z M 0.125 14.53125 C 0.324219 15.101563 1 17.257813 1 20.6875 C 1 23.429688 0.546875 24.71875 0.34375 25.15625 L 12.28125 35.09375 C 12.542969 34.316406 13 32.589844 13 30 C 13 27 12.367188 25.132813 12.15625 24.59375 Z M 28 22 L 31 22 L 31 25 C 30.996094 25.359375 31.183594 25.695313 31.496094 25.878906 C 31.808594 26.058594 32.191406 26.058594 32.503906 25.878906 C 32.816406 25.695313 33.003906 25.359375 33 25 L 33 22 L 36 22 L 36 29 L 28 29 Z M 18.875 26.46875 C 19.261719 26.476563 19.597656 26.710938 19.75 27.09375 C 19.796875 27.214844 20.21875 28.335938 20.21875 30.46875 C 20.21875 32.601563 19.796875 33.722656 19.75 33.84375 C 19.59375 34.234375 19.242188 34.46875 18.84375 34.46875 C 18.71875 34.46875 18.589844 34.457031 18.46875 34.40625 C 17.957031 34.203125 17.703125 33.605469 17.90625 33.09375 C 17.90625 33.09375 18.21875 32.207031 18.21875 30.46875 C 18.21875 28.730469 17.910156 27.851563 17.90625 27.84375 C 17.710938 27.332031 17.957031 26.730469 18.46875 26.53125 C 18.597656 26.480469 18.746094 26.464844 18.875 26.46875 Z M 0.5 27.9375 C 0.738281 29.015625 1 30.59375 1 32.6875 C 1 36.199219 0.214844 37.375 0.21875 37.375 C -0.136719 37.800781 -0.0820313 38.429688 0.34375 38.78125 L 12.3125 48.71875 C 12.59375 47.546875 13 45.433594 13 43 C 13 40.554688 12.496094 38.613281 12.15625 37.59375 Z M 32 33 C 31.449219 33 31 33.449219 31 34 C 31 34.550781 31.449219 35 32 35 C 32.550781 35 33 34.550781 33 34 C 33 33.449219 32.550781 33 32 33 Z M 14.1875 38 C 14.511719 39.230469 14.84375 40.957031 14.84375 43 C 14.84375 45.511719 14.429688 47.6875 14.125 49 L 27 49 C 27 49 29 48.398438 29 46 L 29 38 Z M 32 38 C 31.449219 38 31 38.449219 31 39 C 31 39.550781 31.449219 40 32 40 C 32.550781 40 33 39.550781 33 39 C 33 38.449219 32.550781 38 32 38 Z M 35 38 L 35 46 C 35 48.398438 33 49 33 49 L 47.84375 49 C 48.230469 49 48.585938 48.785156 48.75 48.4375 C 48.796875 48.34375 49.84375 46.078125 49.84375 42 C 49.84375 40.359375 49.675781 39.027344 49.46875 38 Z M 18.875 39.53125 C 19.261719 39.539063 19.597656 39.773438 19.75 40.15625 C 19.796875 40.277344 20.21875 41.398438 20.21875 43.53125 C 20.21875 45.664063 19.796875 46.753906 19.75 46.875 C 19.59375 47.265625 19.242188 47.53125 18.84375 47.53125 C 18.71875 47.53125 18.589844 47.488281 18.46875 47.4375 C 17.957031 47.234375 17.703125 46.667969 17.90625 46.15625 C 17.90625 46.15625 18.21875 45.269531 18.21875 43.53125 C 18.21875 41.792969 17.910156 40.882813 17.90625 40.875 C 17.710938 40.363281 17.957031 39.792969 18.46875 39.59375 C 18.597656 39.542969 18.746094 39.527344 18.875 39.53125 Z"/></svg>